<?xml version="1.0" encoding="utf-8"?>
<!-- Generator: Adobe Illustrator 27.5.0, SVG Export Plug-In . SVG Version: 6.00 Build 0)  -->
<svg version="1.1" xmlns="http://www.w3.org/2000/svg" xmlns:xlink="http://www.w3.org/1999/xlink" x="0px" y="0px"
	 viewBox="0 0 500 500" style="enable-background:new 0 0 500 500;" xml:space="preserve">
<g id="Background_Simple">
	<g>
		<path style="fill:#92E3A9;" d="M447.129,175.555c8.189,39.792,5.485,90.116-22.644,122.159
			c-42.499,48.421-22.301,94.494-118.419,149.344c-14.985,8.553-29.772,14.968-44.228,19.469c-7.771,2.421-15.454,4.28-23.017,5.612
			c-68.622,12.165-127.768-18.707-162.156-68.259c-45.24-65.165-18.475-126.543,0.211-164.374
			c18.687-37.831,9.833-133.439,103.9-188.104c14.345-8.328,29.561-15.199,45.447-20.036c36.255-11.055,79.4-12.267,114.723,3.37
			c2.653,1.175,5.272,2.438,7.861,3.775C399.384,64.71,435.967,121.305,447.129,175.555z"/>
		<path style="opacity:0.7;fill:#FFFFFF;" d="M447.129,175.555c8.189,39.792,5.485,90.116-22.644,122.159
			c-42.499,48.421-22.301,94.494-118.419,149.344c-14.985,8.553-29.772,14.968-44.228,19.469c-7.771,2.421-15.454,4.28-23.017,5.612
			c-68.622,12.165-127.768-18.707-162.156-68.259c-45.24-65.165-18.475-126.543,0.211-164.374
			c18.687-37.831,9.833-133.439,103.9-188.104c14.345-8.328,29.561-15.199,45.447-20.036c36.255-11.055,79.4-12.267,114.723,3.37
			c2.653,1.175,5.272,2.438,7.861,3.775C399.384,64.71,435.967,121.305,447.129,175.555z"/>
	</g>
</g>
<g id="Plant">
	<g>
		<path style="fill:#263238;" d="M71.61,407.405c2.23,0.419,7.159-0.831,7.163-0.832c0.051-0.013-1.811-2.999-1.95-3.174
			c-1.61-2.025-5.911-4.991-8.622-3.97c-1.953,0.736-2.61,3.01-1.72,4.803C67.392,406.064,69.711,407.047,71.61,407.405z"/>
		<path style="fill:#263238;" d="M109.861,459.098h1.874c-0.068-0.154-0.133-0.302-0.203-0.459c-0.568-1.273-1.2-2.621-1.862-4
			c0.3-0.207,1.998-1.394,3.444-2.702c1.804,1.233,5.928,2.214,6.461,2.336c-0.219,1.355-0.446,2.671-0.679,3.909
			c-0.058,0.312-0.116,0.614-0.174,0.916h1.76c0.035-0.208,0.071-0.406,0.105-0.619c0.229-1.375,0.445-2.849,0.654-4.364
			c0.557-0.011,5.104-0.127,7.025-1.049c1.741-0.837,3.727-2.387,4.132-4.392c0.397-1.962-0.828-3.989-2.905-4.194
			c-2.882-0.284-6.27,3.694-7.3,6.066c-0.061,0.14-0.551,1.732-0.844,2.742c0.082-0.62,0.168-1.22,0.244-1.859
			c0.16-1.262,0.282-2.527,0.418-3.887c0.043-0.659,0.086-1.325,0.13-1.997c0.057-0.666,0.033-1.376,0.054-2.071
			c0.013-1.612-0.053-3.246-0.155-4.89c1.106,0.137,5.039,0.567,6.896,0.001c1.848-0.564,4.046-1.794,4.75-3.715
			c0.69-1.88-0.213-4.069-2.235-4.586c-2.807-0.717-6.757,2.702-8.135,4.891c-0.086,0.136-0.898,1.818-1.327,2.75
			c-0.069-0.988-0.134-1.974-0.236-2.972c-0.295-2.879-0.685-5.784-1.059-8.684c-0.116-0.888-0.22-1.775-0.327-2.661
			c0.393,0.053,5.057,0.666,7.137,0.032c1.848-0.563,4.046-1.795,4.749-3.715c0.689-1.88-0.213-4.069-2.235-4.586
			c-2.806-0.718-6.757,2.701-8.135,4.89c-0.104,0.165-1.269,2.587-1.536,3.217c-0.237-1.954-0.454-3.902-0.591-5.832
			c-0.192-2.662-0.233-5.285-0.086-7.83c0.183,0.025,5.048,0.686,7.178,0.037c1.848-0.564,4.046-1.795,4.75-3.715
			c0.689-1.88-0.213-4.069-2.236-4.586c-2.807-0.718-6.757,2.701-8.135,4.89c-0.108,0.172-1.361,2.778-1.554,3.267
			c0.01-0.151,0.002-0.309,0.013-0.46c0.192-2.714,0.72-5.319,1.333-7.734c0.353-1.404,0.77-2.726,1.204-4.003
			c0.894,0.216,4.988,1.159,6.969,0.786c1.899-0.357,4.219-1.34,5.129-3.171c0.892-1.793,0.235-4.068-1.718-4.804
			c-2.711-1.021-7.013,1.943-8.623,3.967c-0.087,0.11-0.854,1.328-1.399,2.222c0.205-0.574,0.405-1.169,0.612-1.714
			c0.772-2.05,1.606-3.879,2.357-5.494c0.435-0.914,0.846-1.733,1.239-2.495c0.987-0.245,4.954-1.284,6.513-2.505
			c1.52-1.192,3.127-3.133,3.091-5.178c-0.035-2.002-1.667-3.719-3.739-3.471c-2.876,0.342-5.329,4.955-5.825,7.494
			c-0.042,0.22-0.32,3.728-0.268,3.715c0,0,0.048-0.012,0.06-0.014c-0.393,0.725-0.805,1.507-1.239,2.371
			c-0.788,1.601-1.664,3.417-2.484,5.458c-0.825,2.038-1.664,4.275-2.335,6.711c-0.676,2.441-1.261,5.043-1.519,7.802
			c-0.003,0.031-0.002,0.064-0.005,0.095c-0.175-0.831-0.743-3.136-0.807-3.308c-0.898-2.426-4.06-6.585-6.954-6.461
			c-2.085,0.09-3.419,2.046-3.132,4.028c0.294,2.024,2.19,3.681,3.883,4.613c1.909,1.051,6.619,1.411,6.995,1.439
			c-0.221,2.63-0.233,5.346-0.095,8.096c0.077,1.573,0.204,3.154,0.352,4.738c-0.175-0.713-0.336-1.35-0.369-1.436
			c-0.899-2.426-4.06-6.585-6.954-6.46c-2.085,0.09-3.419,2.046-3.131,4.027c0.293,2.024,2.19,3.681,3.883,4.613
			c1.718,0.945,5.728,1.333,6.79,1.422c0.063,0.607,0.119,1.214,0.184,1.821c0.312,2.911,0.637,5.815,0.867,8.673
			c0.082,1.007,0.125,2.002,0.173,2.997c-0.156-0.633-0.293-1.165-0.322-1.244c-0.899-2.426-4.06-6.585-6.954-6.461
			c-2.085,0.09-3.42,2.046-3.132,4.028c0.293,2.023,2.191,3.681,3.883,4.612c1.638,0.903,5.337,1.294,6.599,1.405
			c0.018,1.021,0.037,2.043,0.008,3.033c-0.035,0.676-0.022,1.328-0.095,2.005c-0.058,0.671-0.116,1.335-0.173,1.993
			c-0.157,1.263-0.31,2.568-0.493,3.796c-0.121,0.856-0.253,1.668-0.382,2.487c-0.07-1.003-0.248-2.965-0.281-3.127
			c-0.346-1.683-1.566-4.269-3.19-5.911c-0.049-0.249-0.12-0.492-0.216-0.728c-0.752-1.856-2.891-2.871-4.737-1.896
			c-2.561,1.353-3.191,6.54-2.742,9.087c0.027,0.151,0.496,1.749,0.809,2.752c-0.274-0.562-0.533-1.111-0.822-1.686
			c-0.563-1.141-1.159-2.263-1.795-3.473c-0.328-0.573-0.659-1.152-0.994-1.737c-0.319-0.587-0.731-1.166-1.098-1.757
			c-0.879-1.351-1.835-2.678-2.827-3.993c0.998-0.496,4.516-2.307,5.752-3.803c1.231-1.489,2.384-3.729,1.912-5.718
			c-0.463-1.948-2.422-3.276-4.394-2.592c-2.737,0.949-4.146,5.98-4.088,8.567c0.004,0.161,0.254,2.012,0.411,3.026
			c-0.603-0.786-1.201-1.573-1.837-2.349c-1.835-2.239-3.761-4.447-5.674-6.659c-0.586-0.677-1.162-1.359-1.741-2.039
			c0.357-0.173,4.585-2.235,5.97-3.911c1.23-1.489,2.384-3.729,1.912-5.719c-0.462-1.948-2.423-3.276-4.394-2.591
			c-2.737,0.949-4.146,5.98-4.088,8.566c0.005,0.195,0.368,2.857,0.494,3.53c-1.275-1.498-2.531-3.004-3.71-4.538
			c-1.629-2.115-3.11-4.28-4.391-6.483c0.167-0.08,4.589-2.213,6.008-3.929c1.231-1.489,2.384-3.729,1.912-5.719
			c-0.462-1.948-2.422-3.276-4.394-2.591c-2.737,0.949-4.145,5.98-4.087,8.566c0.004,0.203,0.397,3.068,0.506,3.582
			c-0.076-0.131-0.169-0.258-0.243-0.39c-1.337-2.371-2.334-4.834-3.155-7.187c-0.48-1.366-0.861-2.698-1.204-4.003
			c0.864-0.313,4.799-1.786,6.246-3.189c1.387-1.346,2.78-3.445,2.529-5.474c-0.246-1.987-2.048-3.523-4.083-3.059
			c-2.825,0.643-4.777,5.489-5.004,8.066c-0.012,0.14,0.02,1.579,0.059,2.626c-0.146-0.591-0.307-1.199-0.435-1.768
			c-0.486-2.136-0.801-4.122-1.065-5.883c-0.142-1.003-0.25-1.912-0.342-2.764c0.688-0.75,3.424-3.805,4.049-5.683
			c0.611-1.833,0.879-4.337-0.278-6.023c-1.134-1.651-3.441-2.182-5.033-0.834c-2.21,1.873-1.71,7.073-0.724,9.465
			c0.086,0.206,1.79,3.285,1.827,3.247c0,0,0.034-0.036,0.041-0.045c0.072,0.821,0.16,1.702,0.275,2.661
			c0.226,1.77,0.497,3.768,0.94,5.923c0.436,2.155,0.971,4.483,1.755,6.885c0.783,2.408,1.729,4.902,3.037,7.345
			c0.015,0.028,0.034,0.055,0.049,0.082c-0.605-0.596-2.351-2.205-2.499-2.313c-2.087-1.528-7.019-3.252-9.364-1.552
			c-1.689,1.225-1.723,3.593-0.39,5.087c1.362,1.526,3.858,1.861,5.783,1.705c2.172-0.176,6.3-2.475,6.628-2.659
			c1.267,2.315,2.755,4.589,4.387,6.806c0.931,1.269,1.91,2.518,2.906,3.758c-0.539-0.498-1.025-0.94-1.099-0.994
			c-2.088-1.528-7.02-3.252-9.364-1.552c-1.69,1.225-1.723,3.592-0.39,5.086c1.36,1.526,3.858,1.862,5.784,1.706
			c1.954-0.159,5.513-2.048,6.448-2.56c0.387,0.472,0.769,0.947,1.158,1.417c1.867,2.256,3.739,4.499,5.508,6.755
			c0.624,0.795,1.209,1.6,1.797,2.405c-0.479-0.442-0.887-0.81-0.955-0.86c-2.087-1.527-7.019-3.252-9.364-1.552
			c-1.69,1.225-1.723,3.592-0.39,5.087c1.362,1.526,3.858,1.862,5.784,1.705c1.865-0.151,5.165-1.865,6.279-2.469
			c0.578,0.842,1.158,1.684,1.68,2.525c0.343,0.583,0.715,1.12,1.026,1.724c0.322,0.592,0.64,1.178,0.956,1.759
			c0.566,1.139,1.158,2.312,1.683,3.438c0.371,0.78,0.71,1.531,1.054,2.286c-0.612-0.798-1.842-2.336-1.96-2.453
			c-1.831-1.826-6.445-4.278-9.021-2.952c-1.856,0.955-2.247,3.29-1.156,4.969c1.114,1.715,3.531,2.425,5.458,2.562
			c2.122,0.15,6.384-1.411,6.915-1.61C108.897,456.861,109.398,458.003,109.861,459.098z"/>
		<path style="fill:#263238;" d="M121.985,396.98c0.05,0.017,0.145-3.501,0.126-3.723c-0.226-2.577-2.178-7.423-5.002-8.067
			c-2.035-0.464-3.837,1.07-4.083,3.058c-0.252,2.029,1.14,4.129,2.527,5.474C117.18,395.302,121.981,396.978,121.985,396.98z"/>
	</g>
</g>
<g id="Character">
	<g>
		<path style="fill:#B5B5B5;stroke:#263238;stroke-linecap:round;stroke-linejoin:round;stroke-miterlimit:10;" d="M232.034,350.734
			c0,0-37.834,7.186-42.018,12.911c-4.184,5.725-14.574,36.194-15.455,37.515s-18.717,27.966-21.359,35.673
			c-2.643,7.707-0.661,14.533,5.945,18.717c6.606,4.184,13.432,2.202,16.735,2.202c3.303,0,11.891-7.267,12.551-10.349
			c0.661-3.083,2.642-11.451,2.642-11.451l12.331-21.58l7.487,44.916h102.834l7.046-42.934l21.58,39.636h35.673l-22.24-47.343
			l-12.331-22.24c0,0-4.844-16.515-12.331-23.341c-7.487-6.826-17.836-9.028-21.359-9.249c-3.523-0.22-12.992-2.422-17.836-3.523
			c-4.844-1.101-14.974-4.404-14.974-4.404L232.034,350.734z"/>
		<path style="fill:none;stroke:#263238;stroke-linecap:round;stroke-linejoin:round;stroke-miterlimit:10;" d="M161.813,426.241
			c0,0,12.076-1.858,23.595,7.989"/>
		<g>
			<path style="fill:#FFFFFF;stroke:#263238;stroke-linecap:round;stroke-linejoin:round;stroke-miterlimit:10;" d="
				M330.073,433.432c6.756-4.32,19.111-11.62,30.303-15.017l-4.589-9.768l-12.331-22.24c0,0-4.844-16.515-12.331-23.341
				s-17.836-9.028-21.36-9.249c-3.523-0.22-12.992-2.422-17.836-3.523c-4.844-1.101-14.974-4.404-14.974-4.404l-44.921,4.844
				c0,0-34.315,5.575-42.018,12.911c-9.58,9.124-14.574,36.194-15.455,37.515c-0.404,0.606-4.372,6.537-8.805,13.522
				c4.756,3.887,15.515,11.675,28.881,15.04l8.771-15.349l7.487,44.916h102.834l7.046-42.934L330.073,433.432z"/>
			<path style="fill:none;stroke:#263238;stroke-linecap:round;stroke-linejoin:round;stroke-miterlimit:10;" d="M232.034,350.734
				c0,0-0.231,0.079-0.619,0.212l1.72,5.293c0,0,2.863,17.176,9.249,23.121c6.386,5.945,14.313,6.826,25.764-1.541
				c11.451-8.368,14.974-18.497,15.194-23.121c0.22-4.624,0.22-4.624,0.22-4.624l-0.826-2.361c-3.188-0.978-5.78-1.823-5.78-1.823
				L232.034,350.734z"/>
			<path style="fill:none;stroke:#263238;stroke-linecap:round;stroke-linejoin:round;stroke-miterlimit:10;" d="M233.21,388.997
				c0.623,1.821,1.329,3.549,2.127,5.117"/>
			<path style="fill:none;stroke:#263238;stroke-linecap:round;stroke-linejoin:round;stroke-miterlimit:10;" d="M228.511,358.882
				c0,0,0.258,13.295,3.245,25.16"/>
			<path style="fill:none;stroke:#263238;stroke-linecap:round;stroke-linejoin:round;stroke-miterlimit:10;" d="M223.666,358.001
				c0,0-3.743,10.129-2.202,15.855"/>
			<path style="fill:none;stroke:#263238;stroke-linecap:round;stroke-linejoin:round;stroke-miterlimit:10;" d="M305.499,395.094
				c0.364,1.635,0.825,3.231,1.403,4.745"/>
			<path style="fill:none;stroke:#263238;stroke-linecap:round;stroke-linejoin:round;stroke-miterlimit:10;" d="M305.141,370.332
				c0,0-2.007,12.195,0.054,23.273"/>
			<path style="fill:none;stroke:#263238;stroke-linecap:round;stroke-linejoin:round;stroke-miterlimit:10;" d="M293.911,382.664
				c0,0,1.982,7.927,3.964,11.451"/>
			<polyline style="fill:none;stroke:#263238;stroke-linecap:round;stroke-linejoin:round;stroke-miterlimit:10;" points="
				311.747,404.243 320.775,416.354 312.187,410.409 			"/>
			<path style="fill:none;stroke:#263238;stroke-linecap:round;stroke-linejoin:round;stroke-miterlimit:10;" d="M203.408,414.373
				c0,0-2.863-12.551-4.404-18.057c-1.541-5.505-1.321-15.194-1.321-15.194"/>
			<path style="fill:none;stroke:#263238;stroke-linecap:round;stroke-linejoin:round;stroke-miterlimit:10;" d="M187.333,385.747
				c0,0,2.863,5.945,8.368,9.248"/>
		</g>
		<path style="fill:#B5B5B5;stroke:#263238;stroke-linecap:round;stroke-linejoin:round;stroke-miterlimit:10;" d="M239.08,363.726
			c0,0,3.523,11.23,12.772,14.093c9.248,2.863,24.002-14.754,25.103-19.598c1.101-4.845,1.101-9.909,1.101-10.57
			c0-0.661-1.762-16.735-1.762-16.735s-6.166,10.129-14.754,20.258C252.953,361.304,239.08,363.726,239.08,363.726z"/>
		<path style="fill:#263238;stroke:#263238;stroke-linecap:round;stroke-linejoin:round;stroke-miterlimit:10;" d="M239.08,363.726
			c0,0,2.856,9.092,10.167,12.999c2.703-2.786,5.725-6.489,7.229-10.356c3.083-7.927,5.065-15.194,5.065-15.194
			C252.953,361.304,239.08,363.726,239.08,363.726z"/>
		<g>
			<path style="fill:#B5B5B5;stroke:#263238;stroke-linecap:round;stroke-linejoin:round;stroke-miterlimit:10;" d="
				M221.716,304.057c0,0,1.154,25.585,1.731,29.433c0.577,3.848,4.617,14.236,5.579,17.121c0.962,2.886,7.31,13.851,12.889,15.39
				c5.579,1.539,9.619-0.577,13.274-2.309c3.655-1.731,11.927-11.35,13.466-14.043c1.539-2.693,4.809-9.041,5.964-11.542
				c1.154-2.501,1.154-2.501,1.154-2.501s1.154-24.431,1.347-27.509c0.192-3.078,2.693-15.774-0.192-20.199
				c-2.885-4.425-13.851-10.196-25.97-10.581c-12.119-0.385-22.892,2.693-26.932,8.08
				C219.984,290.784,219.215,300.595,221.716,304.057z"/>
			<path style="fill:#263238;stroke:#263238;stroke-linecap:round;stroke-linejoin:round;stroke-miterlimit:10;" d="
				M223.255,302.133c0-1.347,2.309-1.731,2.309-1.731s11.927,9.041,19.045,8.657c7.118-0.385,15.774-6.733,19.045-6.156
				c3.27,0.577,3.655,3.463,2.693,8.272c-0.962,4.809-1.539,11.735,0,11.927c1.539,0.192,4.232-0.962,4.232-0.962
				s-0.385,5.002,1.539,5.194c1.924,0.192,3.655-2.116,3.655-2.693c0-0.577,0.577-8.272,0.577-8.272s0.135-0.064,0.354-0.169
				c0.191-3.896,0.353-7.111,0.415-8.103c0.192-3.078,2.693-15.774-0.192-20.199c-2.886-4.424-13.851-10.196-25.97-10.58
				c-12.119-0.385-22.892,2.693-26.932,8.08c-4.04,5.386-4.809,15.197-2.308,18.66C221.716,304.057,223.255,303.48,223.255,302.133z
				"/>
			<path style="fill:#B5B5B5;stroke:#263238;stroke-linecap:round;stroke-linejoin:round;stroke-miterlimit:10;" d="
				M271.925,328.681c0,0,1.924-9.234,5.386-8.849c3.463,0.385,3.078,9.234,0.769,12.504c-2.308,3.27-4.617,3.847-4.617,3.847"/>
			<path style="fill:none;stroke:#263238;stroke-linecap:round;stroke-linejoin:round;stroke-miterlimit:10;" d="M238.452,331.759
				c0,0-0.577,14.043-0.192,15.197c0.385,1.154,1.731,2.693,5.194,2.693c3.463,0,4.425-0.962,5.002-2.693"/>
			<path style="fill:none;stroke:#263238;stroke-linecap:round;stroke-linejoin:round;stroke-miterlimit:10;" d="M235.374,351.765
				c0,0,1.347,1.924,3.078,2.501c1.731,0.577,7.118,0.77,9.811,0.385c2.693-0.385,5.194-1.924,5.579-2.501"/>
			<path style="fill:#263238;stroke:#263238;stroke-linecap:round;stroke-linejoin:round;stroke-miterlimit:10;" d="M247.852,328.83
				c0,0,11.201-0.599,12.531-0.809c1.33-0.21-3.46-2.18-7.541-2.121C248.762,325.96,244.832,326.969,247.852,328.83z"/>
			<path style="fill:#263238;stroke:#263238;stroke-linecap:round;stroke-linejoin:round;stroke-miterlimit:10;" d="
				M237.098,328.772c0,0-11.206-0.487-12.539-0.683c-1.332-0.197,3.438-2.215,7.519-2.197
				C236.159,325.911,240.1,326.881,237.098,328.772z"/>
			<path style="fill:none;stroke:#263238;stroke-linecap:round;stroke-linejoin:round;stroke-miterlimit:10;" d="M228.256,335.029
				c0,0,2.308,3.463,8.657,1.154"/>
			<path style="fill:none;stroke:#263238;stroke-linecap:round;stroke-linejoin:round;stroke-miterlimit:10;" d="M249.35,335.977
				c0,0,2.918,3.949,9.729,0.57"/>
		</g>
		<g>
			<g>
				
					<rect x="253.243" y="401.026" transform="matrix(0.5843 -0.8116 0.8116 0.5843 -234.9641 392.2682)" style="fill:#92E3A9;stroke:#263238;stroke-linecap:round;stroke-linejoin:round;stroke-miterlimit:10;" width="24.288" height="48.884"/>
				
					<rect x="256.932" y="404.739" transform="matrix(0.5843 -0.8116 0.8116 0.5843 -234.9641 392.269)" style="fill:#FFFFFF;stroke:#263238;stroke-linecap:round;stroke-linejoin:round;stroke-miterlimit:10;" width="16.91" height="41.459"/>
				<path style="fill:#92E3A9;stroke:#263238;stroke-linecap:round;stroke-linejoin:round;stroke-miterlimit:10;" d="
					M267.632,422.349c2.618,1.885,3.736,4.809,2.496,6.532c-1.24,1.723-4.368,1.591-6.986-0.294
					c-2.618-1.885-3.736-4.809-2.495-6.532C261.886,420.333,265.014,420.464,267.632,422.349z"/>
			</g>
			<g>
				
					<rect x="257.085" y="398.665" transform="matrix(0.6922 -0.7217 0.7217 0.6922 -222.4884 324.5278)" style="fill:#92E3A9;stroke:#263238;stroke-linecap:round;stroke-linejoin:round;stroke-miterlimit:10;" width="24.288" height="48.884"/>
				
					<rect x="260.775" y="402.378" transform="matrix(0.6922 -0.7217 0.7217 0.6922 -222.4889 324.5303)" style="fill:#FFFFFF;stroke:#263238;stroke-linecap:round;stroke-linejoin:round;stroke-miterlimit:10;" width="16.909" height="41.459"/>
				<path style="fill:#92E3A9;stroke:#263238;stroke-linecap:round;stroke-linejoin:round;stroke-miterlimit:10;" d="
					M271.89,420.334c2.328,2.233,3.025,5.285,1.555,6.817c-1.469,1.532-4.548,0.963-6.876-1.27
					c-2.328-2.233-3.025-5.285-1.556-6.817C266.483,417.532,269.561,418.101,271.89,420.334z"/>
			</g>
			<g>
				
					<rect x="260.809" y="397.386" transform="matrix(0.8079 -0.5893 0.5893 0.8079 -196.1425 241.8516)" style="fill:#92E3A9;stroke:#263238;stroke-linecap:round;stroke-linejoin:round;stroke-miterlimit:10;" width="24.288" height="48.884"/>
				
					<rect x="264.499" y="401.099" transform="matrix(0.808 -0.5893 0.5893 0.808 -196.1418 241.8498)" style="fill:#FFFFFF;stroke:#263238;stroke-linecap:round;stroke-linejoin:round;stroke-miterlimit:10;" width="16.909" height="41.459"/>
				<path style="fill:#92E3A9;stroke:#263238;stroke-linecap:round;stroke-linejoin:round;stroke-miterlimit:10;" d="
					M276.059,419.564c1.901,2.607,2.052,5.733,0.337,6.984c-1.715,1.251-4.646,0.151-6.547-2.455
					c-1.901-2.606-2.052-5.734-0.337-6.984C271.226,415.858,274.158,416.957,276.059,419.564z"/>
			</g>
			<g>
				
					<rect x="265.512" y="396.74" transform="matrix(0.914 -0.4057 0.4057 0.914 -146.9867 148.8485)" style="fill:#92E3A9;stroke:#263238;stroke-linecap:round;stroke-linejoin:round;stroke-miterlimit:10;" width="24.288" height="48.884"/>
				
					<rect x="269.201" y="400.452" transform="matrix(0.914 -0.4057 0.4057 0.914 -146.9867 148.8484)" style="fill:#FFFFFF;stroke:#263238;stroke-linecap:round;stroke-linejoin:round;stroke-miterlimit:10;" width="16.909" height="41.459"/>
				<path style="fill:#92E3A9;stroke:#263238;stroke-linecap:round;stroke-linejoin:round;stroke-miterlimit:10;" d="
					M281.169,419.622c1.309,2.949,0.797,6.037-1.143,6.898c-1.94,0.861-4.574-0.831-5.882-3.78
					c-1.309-2.949-0.797-6.037,1.143-6.898C277.226,414.981,279.86,416.674,281.169,419.622z"/>
			</g>
			<g>
				
					<rect x="269.848" y="397.03" transform="matrix(0.9752 -0.2214 0.2214 0.9752 -86.323 72.9005)" style="fill:#92E3A9;stroke:#263238;stroke-linecap:round;stroke-linejoin:round;stroke-miterlimit:10;" width="24.288" height="48.884"/>
				
					<rect x="273.538" y="400.742" transform="matrix(0.9752 -0.2214 0.2214 0.9752 -86.3231 72.9006)" style="fill:#FFFFFF;stroke:#263238;stroke-linecap:round;stroke-linejoin:round;stroke-miterlimit:10;" width="16.909" height="41.459"/>
				<path style="fill:#92E3A9;stroke:#263238;stroke-linecap:round;stroke-linejoin:round;stroke-miterlimit:10;" d="
					M285.74,420.621c0.714,3.146-0.384,6.077-2.454,6.547c-2.07,0.47-4.327-1.699-5.041-4.846c-0.714-3.146,0.385-6.077,2.454-6.547
					C282.769,415.305,285.026,417.474,285.74,420.621z"/>
			</g>
		</g>
		<g>
			<path style="fill:#B5B5B5;stroke:#263238;stroke-linecap:round;stroke-linejoin:round;stroke-miterlimit:10;" d="
				M295.723,426.484c0,0-17.396,6.606-18.277,7.267c-0.881,0.661-9.469,8.588-9.909,9.689c-0.44,1.101-0.44,1.101-0.44,1.101
				s-0.22,1.541,1.321,1.541c0,0-1.762,2.642-0.22,3.964c1.541,1.321,3.743,0.22,3.743,0.22s-1.982,3.083,0.22,3.743
				c2.202,0.661,5.065,0.22,5.065,0.22s-0.441,1.101,7.267,2.643c7.707,1.541,15.854,2.202,19.378,1.541
				c3.523-0.661,11.451-1.541,11.451-1.541s35.232,2.863,42.279,2.202c7.047-0.661,18.277,0.44,20.479-3.083
				c2.202-3.523-1.101-9.909-3.743-13.873c-2.642-3.964-8.808-11.451-16.075-11.671c-4.402-0.133-12.111,1.321-16.075,3.083
				s-13.212,5.505-14.093,5.725c-0.881,0.22-10.349-0.44-10.349-0.44s-18.277-12.111-19.378-12.331
				C297.264,426.264,295.723,426.484,295.723,426.484z"/>
			<polyline style="fill:none;stroke:#263238;stroke-linecap:round;stroke-linejoin:round;stroke-miterlimit:10;" points="
				268.418,446.082 281.85,438.815 297.044,435.072 			"/>
			<polyline style="fill:none;stroke:#263238;stroke-linecap:round;stroke-linejoin:round;stroke-miterlimit:10;" points="
				271.941,450.266 284.493,445.641 298.365,442.999 			"/>
			<polyline style="fill:none;stroke:#263238;stroke-linecap:round;stroke-linejoin:round;stroke-miterlimit:10;" points="
				277.226,454.229 289.557,452.468 300.567,451.146 			"/>
		</g>
		<g>
			<path style="fill:#B5B5B5;stroke:#263238;stroke-linecap:round;stroke-linejoin:round;stroke-miterlimit:10;" d="M174.782,428.46
				c0,0,10.57,5.285,11.671,5.505c1.101,0.22,7.927-0.22,8.368,4.624c0.44,4.844-3.964,11.451-4.844,14.313
				s-11.23,2.202-11.23,2.202s-3.523-11.891-4.404-16.295S174.782,428.46,174.782,428.46z"/>
			<g>
				<polygon style="fill:#FFFFFF;stroke:#263238;stroke-linecap:round;stroke-linejoin:round;stroke-miterlimit:10;" points="
					170.598,410.184 183.369,452.242 187.177,455.987 187.083,450.482 173.984,409.003 				"/>
				<polygon style="fill:#FFFFFF;stroke:#263238;stroke-linecap:round;stroke-linejoin:round;stroke-miterlimit:10;" points="
					173.984,409.003 170.598,410.184 172.099,415.129 175.551,413.964 				"/>
			</g>
			<g>
				<path style="fill:#B5B5B5;stroke:#263238;stroke-linecap:round;stroke-linejoin:round;stroke-miterlimit:10;" d="
					M157.386,452.903c0,0,1.321,3.743,2.642,4.184c1.321,0.44,8.808,0.22,11.01,0.22
					C173.24,457.307,157.386,452.903,157.386,452.903z"/>
				<path style="fill:#B5B5B5;stroke:#263238;stroke-linecap:round;stroke-linejoin:round;stroke-miterlimit:10;" d="
					M160.468,444.535c0,0-3.523,6.606-3.083,8.368s3.743,2.642,6.606,3.303c2.863,0.661,9.469,0.881,12.331,0.661
					c2.863-0.22-2.422-2.863-2.422-2.863s-5.065-3.083-8.148-5.725C162.671,445.636,160.468,444.535,160.468,444.535z"/>
				<path style="fill:#B5B5B5;stroke:#263238;stroke-linecap:round;stroke-linejoin:round;stroke-miterlimit:10;" d="
					M166.634,438.149c0,0-5.946,3.964-6.166,6.386c-0.22,2.422,6.386,8.808,7.487,9.689s8.808,2.863,11.23,2.422
					c2.422-0.44,3.303-2.202,3.303-2.202s-7.487-5.725-9.469-8.808c-1.982-3.083-4.404-8.808-4.404-8.808L166.634,438.149z"/>
				<path style="fill:#B5B5B5;stroke:#263238;stroke-linecap:round;stroke-linejoin:round;stroke-miterlimit:10;" d="
					M174.782,428.46c0,0-8.588,2.202-8.588,5.285c0,3.083,3.743,12.331,5.725,14.313c1.982,1.982,8.808,7.927,10.57,6.386
					c1.762-1.541,0.661-3.083,0.22-4.624c-0.44-1.541-5.505-14.533-5.505-14.533L174.782,428.46z"/>
			</g>
			<path style="fill:#B5B5B5;stroke:#263238;stroke-linecap:round;stroke-linejoin:round;stroke-miterlimit:10;" d="
				M188.654,434.846c0,0-7.267,13.652-5.945,14.974s3.743,2.642,4.844,1.982c1.101-0.661,5.725-6.606,7.046-9.909
				c1.321-3.303,0.44-4.624-1.541-6.166C191.076,434.186,188.654,434.846,188.654,434.846z"/>
		</g>
		<g>
			<path style="fill:none;stroke:#263238;stroke-linecap:round;stroke-linejoin:round;stroke-miterlimit:10;" d="M208.774,456.823
				c0-1.273-1.032-2.304-2.304-2.304c-1.273,0-2.304,1.032-2.304,2.304c0,1.272,1.032,2.304,2.304,2.304
				C207.742,459.127,208.774,458.096,208.774,456.823z"/>
			
				<rect x="143.637" y="456.062" style="fill:#FFFFFF;stroke:#263238;stroke-linecap:round;stroke-linejoin:round;stroke-miterlimit:10;" width="62.237" height="3.276"/>
			
				<rect x="207.259" y="456.062" style="fill:#FFFFFF;stroke:#263238;stroke-linecap:round;stroke-linejoin:round;stroke-miterlimit:10;" width="62.237" height="3.276"/>
		</g>
	</g>
</g>
<g id="Table">
	<g>
		
			<line style="fill:none;stroke:#263238;stroke-linecap:round;stroke-linejoin:round;stroke-miterlimit:10;" x1="397.548" y1="459.337" x2="406.813" y2="459.337"/>
		
			<line style="fill:none;stroke:#263238;stroke-linecap:round;stroke-linejoin:round;stroke-miterlimit:10;" x1="66.134" y1="459.337" x2="392.56" y2="459.337"/>
	</g>
</g>
<g id="Chart">
	<g>
		<g>
			<path style="fill:#878787;stroke:#263238;stroke-linecap:round;stroke-linejoin:round;stroke-miterlimit:10;" d="
				M247.482,156.964l-45.252-41.858c-10.175,10.995-16.401,25.696-16.401,41.858c0,34.05,27.603,61.653,61.653,61.653
				c21.758,0,40.869-11.281,51.842-28.303L247.482,156.964z"/>
			<path style="fill:#92E3A9;stroke:#263238;stroke-linecap:round;stroke-linejoin:round;stroke-miterlimit:10;" d="M202.23,115.106
				l45.252,41.858l51.842,33.351c6.199-9.617,9.811-21.058,9.811-33.351c0-34.05-27.603-61.653-61.653-61.653
				C229.593,95.311,213.492,102.937,202.23,115.106z"/>
			<path style="fill:#B8B8B8;stroke:#263238;stroke-linecap:round;stroke-linejoin:round;stroke-miterlimit:10;" d="
				M247.482,156.964l-14.355,59.955c4.608,1.1,9.411,1.698,14.355,1.698c21.758,0,40.869-11.281,51.842-28.303L247.482,156.964z"/>
			<path style="fill:#FFFFFF;stroke:#263238;stroke-linecap:round;stroke-linejoin:round;stroke-miterlimit:10;" d="M233.05,216.902
				l14.432-59.938l-61.63-0.96c-0.005,0.321-0.023,0.638-0.023,0.96C185.829,186.043,205.965,210.403,233.05,216.902z"/>
		</g>
		<g>
			
				<line style="fill:none;stroke:#263238;stroke-linecap:round;stroke-linejoin:round;stroke-miterlimit:10;" x1="287.729" y1="132.22" x2="317.682" y2="109.22"/>
			
				<line style="fill:none;stroke:#263238;stroke-linecap:round;stroke-linejoin:round;stroke-miterlimit:10;" x1="205.891" y1="189.453" x2="178.612" y2="209.243"/>
			
				<line style="fill:none;stroke:#263238;stroke-linecap:round;stroke-linejoin:round;stroke-miterlimit:10;" x1="202.682" y1="135.964" x2="167.379" y2="119.917"/>
			<polyline style="fill:none;stroke:#263238;stroke-linecap:round;stroke-linejoin:round;stroke-miterlimit:10;" points="
				265.264,202.825 278.636,236.97 302.35,236.97 			"/>
		</g>
		
			<circle style="fill:#263238;stroke:#263238;stroke-linecap:round;stroke-linejoin:round;stroke-miterlimit:10;" cx="247.482" cy="156.964" r="42.156"/>
	</g>
</g>
<g id="Money_Sign">
	<g>
		<path style="fill:#92E3A9;" d="M246.359,185.803v-4.739c-3.874-0.15-6.762-1.41-8.66-3.78c-1.9-2.369-2.944-5.735-3.131-10.099
			l7.221-1.41c0.075,1.769,0.283,3.329,0.621,4.683c0.339,1.354,0.875,2.398,1.608,3.131c0.734,0.733,1.702,1.1,2.905,1.1
			c1.354,0,2.322-0.404,2.905-1.213c0.583-0.808,0.875-1.834,0.875-3.075c0-1.993-0.461-3.629-1.382-4.908
			c-0.922-1.278-2.116-2.557-3.583-3.836l-5.811-5.077c-1.054-0.94-1.974-1.927-2.765-2.962c-0.79-1.034-1.41-2.2-1.862-3.498
			c-0.452-1.298-0.677-2.811-0.677-4.542c0-3.422,0.977-6.102,2.933-8.039c1.955-1.937,4.589-2.999,7.899-3.187v-4.57h2.426v4.513
			c1.918,0.113,3.498,0.536,4.739,1.27c1.241,0.733,2.229,1.674,2.962,2.821c0.734,1.148,1.278,2.435,1.636,3.864
			c0.357,1.43,0.573,2.915,0.649,4.457l-7.109,1.241c-0.076-1.429-0.226-2.717-0.451-3.865c-0.226-1.147-0.649-2.05-1.27-2.708
			c-0.62-0.658-1.533-0.95-2.736-0.874c-1.28,0.038-2.248,0.451-2.906,1.241c-0.658,0.79-0.987,1.787-0.987,2.99
			c0,1.617,0.357,2.924,1.072,3.921c0.714,0.997,1.598,1.984,2.651,2.962l5.755,5.021c1.203,1.091,2.322,2.276,3.357,3.554
			c1.034,1.279,1.861,2.708,2.482,4.288c0.621,1.58,0.931,3.385,0.931,5.416c0,2.031-0.405,3.846-1.213,5.444
			c-0.809,1.599-1.947,2.887-3.413,3.865c-1.467,0.979-3.216,1.58-5.247,1.805v4.795H246.359z"/>
	</g>
</g>
<g id="Bills">
	<g>
		<g>
			
				<rect x="102.815" y="195.476" style="fill:#FFFFFF;stroke:#263238;stroke-width:0.75;stroke-miterlimit:10;" width="62.262" height="83.343"/>
			
				<line style="fill:none;stroke:#263238;stroke-width:0.75;stroke-miterlimit:10;" x1="110.169" y1="220.969" x2="158.214" y2="220.969"/>
			
				<line style="fill:none;stroke:#263238;stroke-width:0.75;stroke-miterlimit:10;" x1="110.169" y1="232.735" x2="158.214" y2="232.735"/>
			
				<line style="fill:none;stroke:#263238;stroke-width:0.75;stroke-miterlimit:10;" x1="110.169" y1="269.014" x2="158.214" y2="269.014"/>
			
				<line style="fill:none;stroke:#263238;stroke-width:0.75;stroke-miterlimit:10;" x1="140.074" y1="221.459" x2="140.074" y2="271.955"/>
			
				<line style="fill:none;stroke:#263238;stroke-width:0.75;stroke-miterlimit:10;" x1="114.091" y1="221.459" x2="114.091" y2="271.955"/>
			
				<line style="fill:none;stroke:#263238;stroke-width:0.75;stroke-miterlimit:10;" x1="153.311" y1="221.459" x2="153.311" y2="271.955"/>
			<g>
				<path style="fill:#263238;" d="M119.112,215.599v-11.992h2.946c0.533,0,1.014,0.05,1.443,0.148
					c0.43,0.099,0.799,0.264,1.11,0.496c0.311,0.232,0.55,0.546,0.718,0.94c0.168,0.395,0.252,0.893,0.252,1.495
					c0,0.484-0.067,0.898-0.2,1.244c-0.133,0.345-0.328,0.619-0.585,0.822c-0.257,0.202-0.577,0.338-0.962,0.407
					c0.473,0.079,0.866,0.245,1.177,0.496c0.311,0.252,0.543,0.579,0.696,0.984s0.229,0.893,0.229,1.466
					c0,0.572-0.072,1.078-0.215,1.517c-0.143,0.439-0.355,0.805-0.636,1.096c-0.281,0.291-0.632,0.511-1.051,0.658
					c-0.42,0.148-0.911,0.222-1.474,0.222H119.112z M121.302,208.508h0.74c0.434,0,0.77-0.064,1.007-0.192
					c0.237-0.128,0.402-0.326,0.496-0.592c0.093-0.267,0.14-0.602,0.14-1.007c0-0.424-0.072-0.752-0.215-0.984
					c-0.143-0.232-0.358-0.39-0.644-0.473c-0.287-0.084-0.652-0.126-1.096-0.126h-0.43V208.508z M121.302,214.059h0.829
					c0.661,0,1.11-0.16,1.347-0.481c0.237-0.32,0.355-0.816,0.355-1.488c0-0.483-0.057-0.875-0.171-1.176
					c-0.113-0.301-0.301-0.526-0.563-0.674c-0.261-0.148-0.609-0.222-1.043-0.222h-0.755V214.059z"/>
				<path style="fill:#263238;" d="M127.416,215.599v-11.992h2.162v11.992H127.416z"/>
				<path style="fill:#263238;" d="M131.428,215.599v-11.992h2.191v10.482h2.902v1.51H131.428z"/>
				<path style="fill:#263238;" d="M137.602,215.599v-11.992h2.191v10.482h2.902v1.51H137.602z"/>
				<path style="fill:#263238;" d="M146.795,215.762c-0.721,0-1.323-0.14-1.807-0.422c-0.484-0.281-0.849-0.693-1.095-1.236
					c-0.247-0.543-0.385-1.209-0.414-1.999l1.88-0.37c0.019,0.464,0.076,0.873,0.17,1.228c0.094,0.355,0.237,0.63,0.429,0.822
					c0.193,0.193,0.446,0.289,0.763,0.289c0.355,0,0.607-0.106,0.755-0.319c0.148-0.212,0.222-0.481,0.222-0.807
					c0-0.523-0.119-0.952-0.355-1.288c-0.237-0.335-0.553-0.671-0.948-1.007l-1.51-1.332c-0.424-0.365-0.762-0.772-1.014-1.222
					c-0.252-0.449-0.378-1.004-0.378-1.666c0-0.947,0.277-1.678,0.829-2.191c0.553-0.513,1.308-0.77,2.266-0.77
					c0.562,0,1.031,0.087,1.406,0.259c0.375,0.173,0.674,0.413,0.896,0.718c0.222,0.306,0.387,0.654,0.496,1.044
					c0.109,0.39,0.178,0.802,0.208,1.236l-1.866,0.326c-0.02-0.375-0.062-0.711-0.126-1.007c-0.065-0.296-0.178-0.528-0.34-0.696
					c-0.163-0.167-0.402-0.251-0.718-0.251c-0.326,0-0.575,0.106-0.748,0.318c-0.173,0.213-0.259,0.477-0.259,0.792
					c0,0.405,0.084,0.738,0.251,0.999c0.168,0.261,0.41,0.531,0.726,0.807l1.495,1.317c0.493,0.414,0.915,0.901,1.266,1.458
					c0.35,0.558,0.526,1.231,0.526,2.021c0,0.572-0.126,1.081-0.378,1.525c-0.252,0.444-0.602,0.792-1.051,1.044
					C147.922,215.636,147.397,215.762,146.795,215.762z"/>
			</g>
		</g>
		<g>
			
				<rect x="96.607" y="191.035" transform="matrix(0.9756 0.2197 -0.2197 0.9756 54.253 -22.3802)" style="fill:#FFFFFF;stroke:#263238;stroke-width:0.75;stroke-miterlimit:10;" width="62.262" height="83.343"/>
			
				<line style="fill:none;stroke:#263238;stroke-width:0.75;stroke-miterlimit:10;" x1="108.096" y1="211.7" x2="154.967" y2="222.256"/>
			
				<line style="fill:none;stroke:#263238;stroke-width:0.75;stroke-miterlimit:10;" x1="105.511" y1="223.178" x2="152.382" y2="233.735"/>
			
				<line style="fill:none;stroke:#263238;stroke-width:0.75;stroke-miterlimit:10;" x1="103.303" y1="235.007" x2="150.174" y2="245.563"/>
			
				<line style="fill:none;stroke:#263238;stroke-width:0.75;stroke-miterlimit:10;" x1="101.095" y1="246.835" x2="147.966" y2="257.392"/>
			
				<line style="fill:none;stroke:#263238;stroke-width:0.75;stroke-miterlimit:10;" x1="97.54" y1="258.57" x2="144.411" y2="269.127"/>
			
				<line style="fill:none;stroke:#263238;stroke-width:0.75;stroke-miterlimit:10;" x1="137.163" y1="218.749" x2="126.068" y2="268.011"/>
			
				<line style="fill:none;stroke:#263238;stroke-width:0.75;stroke-miterlimit:10;" x1="111.815" y1="213.04" x2="100.72" y2="262.302"/>
			
				<line style="fill:none;stroke:#263238;stroke-width:0.75;stroke-miterlimit:10;" x1="150.077" y1="221.657" x2="138.981" y2="270.919"/>
			<g>
				<path style="fill:#92E3A9;" d="M118.001,208.426l2.635-11.699l2.874,0.647c0.52,0.117,0.978,0.272,1.376,0.462
					c0.397,0.191,0.722,0.434,0.974,0.728c0.252,0.295,0.417,0.653,0.494,1.075c0.076,0.422,0.049,0.927-0.083,1.514
					c-0.106,0.472-0.263,0.861-0.468,1.17c-0.206,0.307-0.456,0.532-0.751,0.673c-0.295,0.141-0.637,0.203-1.028,0.185
					c0.444,0.182,0.791,0.429,1.039,0.743c0.248,0.314,0.402,0.685,0.462,1.113c0.06,0.428,0.028,0.922-0.098,1.48
					c-0.126,0.558-0.307,1.036-0.543,1.433c-0.236,0.397-0.524,0.707-0.861,0.929c-0.338,0.222-0.729,0.359-1.17,0.411
					c-0.442,0.052-0.937,0.017-1.486-0.107L118.001,208.426z M121.696,201.989l0.722,0.163c0.424,0.096,0.765,0.107,1.024,0.034
					c0.26-0.073,0.464-0.23,0.614-0.469c0.15-0.24,0.269-0.557,0.358-0.952c0.093-0.414,0.095-0.75,0.007-1.007
					c-0.089-0.258-0.263-0.459-0.524-0.603c-0.261-0.145-0.608-0.266-1.041-0.364l-0.419-0.094L121.696,201.989z M120.476,207.405
					l0.809,0.182c0.645,0.145,1.118,0.088,1.42-0.174c0.301-0.261,0.526-0.718,0.674-1.373c0.106-0.471,0.136-0.866,0.092-1.185
					c-0.044-0.319-0.178-0.579-0.401-0.781c-0.223-0.201-0.545-0.35-0.969-0.445l-0.737-0.166L120.476,207.405z"/>
				<path style="fill:#92E3A9;" d="M126.103,210.251l2.635-11.699l2.109,0.475l-2.635,11.699L126.103,210.251z"/>
				<path style="fill:#92E3A9;" d="M130.016,211.132l2.635-11.699l2.137,0.481l-2.303,10.225l2.831,0.638l-0.332,1.473
					L130.016,211.132z"/>
				<path style="fill:#92E3A9;" d="M136.039,212.488l2.635-11.699l2.137,0.481l-2.303,10.225l2.831,0.638l-0.332,1.473
					L136.039,212.488z"/>
				<path style="fill:#92E3A9;" d="M144.972,214.667c-0.703-0.158-1.26-0.428-1.67-0.808c-0.41-0.381-0.676-0.863-0.797-1.447
					c-0.122-0.584-0.11-1.264,0.035-2.041l1.915,0.052c-0.083,0.457-0.118,0.869-0.104,1.236c0.014,0.367,0.093,0.666,0.238,0.896
					c0.146,0.23,0.372,0.38,0.68,0.45c0.347,0.078,0.615,0.03,0.806-0.145c0.191-0.174,0.323-0.42,0.394-0.738
					c0.115-0.51,0.094-0.955-0.064-1.335c-0.157-0.379-0.392-0.776-0.703-1.19l-1.18-1.632c-0.334-0.449-0.574-0.921-0.721-1.415
					c-0.147-0.493-0.148-1.063-0.003-1.708c0.208-0.924,0.638-1.576,1.29-1.955c0.652-0.379,1.445-0.464,2.379-0.253
					c0.548,0.123,0.986,0.311,1.315,0.562c0.328,0.251,0.567,0.551,0.716,0.897c0.15,0.347,0.234,0.723,0.254,1.127
					c0.021,0.404-0.003,0.821-0.069,1.252l-1.892-0.092c0.063-0.37,0.096-0.707,0.099-1.01c0.002-0.303-0.058-0.554-0.179-0.754
					c-0.122-0.199-0.337-0.333-0.645-0.403c-0.318-0.072-0.585-0.023-0.799,0.146c-0.215,0.169-0.357,0.408-0.427,0.716
					c-0.089,0.395-0.081,0.738,0.025,1.03c0.106,0.292,0.283,0.608,0.531,0.946l1.169,1.614c0.39,0.513,0.695,1.08,0.914,1.701
					c0.219,0.621,0.242,1.317,0.069,2.087c-0.126,0.558-0.36,1.027-0.704,1.404c-0.343,0.378-0.762,0.641-1.255,0.788
					C146.099,214.792,145.559,214.799,144.972,214.667z"/>
			</g>
		</g>
	</g>
</g>
<g id="Car">
	<g>
		<g>
			<g>
				
					<path style="fill:#263238;stroke:#263238;stroke-width:0.75;stroke-linecap:round;stroke-linejoin:round;stroke-miterlimit:10;" d="
					M394.053,245.048v17.317h-67.692v-17.317h-12.725v25.307c0,1.963,1.591,3.555,3.554,3.555h5.616
					c1.963,0,3.555-1.591,3.555-3.555v-1.168h6.166l2.886-1.837h49.326l3.673,2.099h5.641v0.906c0,1.963,1.591,3.555,3.555,3.555
					h5.616c1.963,0,3.554-1.591,3.554-3.555v-25.307H394.053z"/>
				
					<path style="fill:#92E3A9;stroke:#263238;stroke-width:0.75;stroke-linecap:round;stroke-linejoin:round;stroke-miterlimit:10;" d="
					M404.154,232.585c-0.472-0.943-3.91-4.536-4.602-5.253c-0.081-0.084-0.148-0.177-0.202-0.28
					c-0.842-1.606-7.981-13.361-9.233-15.697c-2.297-4.284-4.141-3.639-6.593-3.95c-0.072-0.009-0.144,0.012-0.217,0.008
					l-18.627-0.942c-3.068-0.155-6.141-0.156-9.209-0.003c-5.042,0.252-10.083,0.5-15.125,0.757
					c-4.207,0.215-8.263-0.058-10.575,4.129c-1.281,2.319-8.391,14.082-9.233,15.695c-0.054,0.104-0.122,0.198-0.203,0.282
					c-0.694,0.72-4.129,4.31-4.601,5.252c-0.525,1.049-2.624,4.985-2.624,5.772c0,0.679,0.488,11.901,2.643,20.698
					c0.642,2.622,2.629,4.722,5.226,5.457c0.184,0.052,0.323,0.082,0.395,0.082h16.341c0.441,0,0.849-0.235,1.07-0.617l3.866-6.678
					c0.076-0.132,0.175-0.248,0.294-0.343c0.609-0.49,2.664-1.939,5.715-1.939c2.684,0,7.886,0,10.495,0c0.962,0,1.574,0,1.574,0
					c2.609,0,7.811,0,10.495,0c3.051,0,5.107,1.448,5.715,1.939c0.119,0.096,0.218,0.211,0.294,0.343l3.866,6.678
					c0.221,0.382,0.629,0.617,1.07,0.617h16.341c0.073,0,0.211-0.03,0.395-0.082c2.598-0.735,4.584-2.835,5.226-5.457
					c2.155-8.797,2.643-20.019,2.643-20.698C406.778,237.57,404.679,233.635,404.154,232.585z M323.999,224.189
					c3.28-6.428,9.445-14.277,9.445-14.277c30.042-3.017,53.13-0.131,53.13-0.131l8.921,14.408
					C375.162,222.221,323.999,224.189,323.999,224.189z"/>
				
					<path style="fill:#787878;stroke:#263238;stroke-width:0.75;stroke-linecap:round;stroke-linejoin:round;stroke-miterlimit:10;" d="
					M338.43,264.595l-0.918,2.099h44.603l-0.656-2.099l-4.329-7.478c0,0-1.705-1.968-5.903-2.099c-4.198-0.131-22.564,0-22.564,0
					s-3.148-0.262-5.903,2.099L338.43,264.595z"/>
				
					<path style="fill:#263238;stroke:#263238;stroke-width:0.75;stroke-linecap:round;stroke-linejoin:round;stroke-miterlimit:10;" d="
					M342.234,239.669c0,0,3.542,6.297,4.592,7.346s2.23,1.049,3.673,1.181c1.443,0.131,21.252,0,21.252,0s1.574-0.262,2.361-1.443
					c0.787-1.181,3.411-7.084,3.411-7.084H342.234z"/>
				
					<path style="fill:#787878;stroke:#263238;stroke-width:0.75;stroke-linecap:round;stroke-linejoin:round;stroke-miterlimit:10;" d="
					M345.748,240.524c0,0,2.836,5.043,3.677,5.883c0.84,0.84,1.786,0.84,2.942,0.945c1.156,0.105,17.019,0,17.019,0
					s1.261-0.21,1.891-1.156c0.63-0.945,2.731-5.673,2.731-5.673H345.748z"/>
				
					<path style="fill:#FFFFFF;stroke:#263238;stroke-width:0.75;stroke-linecap:round;stroke-linejoin:round;stroke-miterlimit:10;" d="
					M378.835,265.906"/>
				<g>
					
						<path style="fill:#263238;stroke:#263238;stroke-width:0.75;stroke-linecap:round;stroke-linejoin:round;stroke-miterlimit:10;" d="
						M374.678,262.365l-0.785-2.168c-0.496-1.371-1.81-2.273-3.268-2.244l-21.307,0.214c-1.504,0.03-2.81,1.043-3.212,2.492
						l-0.531,1.706H374.678z"/>
					
						<polygon style="fill:#263238;stroke:#263238;stroke-width:0.75;stroke-linecap:round;stroke-linejoin:round;stroke-miterlimit:10;" points="
						345.249,263.414 344.595,265.513 375.818,265.513 375.058,263.414 					"/>
				</g>
				
					<path style="fill:#263238;stroke:#263238;stroke-width:0.75;stroke-linecap:round;stroke-linejoin:round;stroke-miterlimit:10;" d="
					M399.431,227.206c0,0,0.656-5.116,1.837-5.116s6.428,1.443,6.559,2.492c0.131,1.049-1.049,2.23-2.099,2.493
					c-1.049,0.262-3.28,0.525-3.28,0.525l-0.525,1.968L399.431,227.206z"/>
				
					<path style="fill:#263238;stroke:#263238;stroke-width:0.75;stroke-linecap:round;stroke-linejoin:round;stroke-miterlimit:10;" d="
					M320.457,227.206c0,0-0.656-5.116-1.837-5.116c-1.181,0-6.428,1.443-6.559,2.492c-0.131,1.049,1.05,2.23,2.099,2.493
					c1.049,0.262,3.28,0.525,3.28,0.525l0.525,1.968L320.457,227.206z"/>
				
					<path style="fill:#FFFFFF;stroke:#263238;stroke-width:0.75;stroke-linecap:round;stroke-linejoin:round;stroke-miterlimit:10;" d="
					M335.675,239.013c0,0,2.361,2.492,3.148,7.084c0,0-11.151-0.525-15.48-2.23c-4.329-1.705-4.854-1.837-4.985-2.624
					s0.262-6.428,1.968-7.346c1.705-0.918,3.542-0.656,5.247,0.656c1.705,1.312,3.804,3.28,4.985,3.673
					C331.739,238.62,335.675,239.013,335.675,239.013z"/>
				
					<circle style="fill:#FFFFFF;stroke:#263238;stroke-width:0.75;stroke-linecap:round;stroke-linejoin:round;stroke-miterlimit:10;" cx="324.959" cy="239.394" r="3.075"/>
				
					<path style="fill:#FFFFFF;stroke:#263238;stroke-width:0.75;stroke-linecap:round;stroke-linejoin:round;stroke-miterlimit:10;" d="
					M333.524,243.238c0,0.788-0.639,1.428-1.428,1.428s-1.427-0.639-1.427-1.428c0-0.788,0.639-1.428,1.427-1.428
					S333.524,242.449,333.524,243.238z"/>
				
					<path style="fill:#FFFFFF;stroke:#263238;stroke-width:0.75;stroke-linecap:round;stroke-linejoin:round;stroke-miterlimit:10;" d="
					M384.584,239.013c0,0-2.361,2.492-3.148,7.084c0,0,11.151-0.525,15.48-2.23c4.329-1.705,4.854-1.837,4.985-2.624
					s-0.262-6.428-1.968-7.346c-1.705-0.918-3.542-0.656-5.247,0.656c-1.706,1.312-3.804,3.28-4.985,3.673
					C388.52,238.62,384.584,239.013,384.584,239.013z"/>
				
					<path style="fill:#FFFFFF;stroke:#263238;stroke-width:0.75;stroke-linecap:round;stroke-linejoin:round;stroke-miterlimit:10;" d="
					M392.932,239.394c0,1.698,1.377,3.075,3.075,3.075c1.698,0,3.075-1.377,3.075-3.075c0-1.698-1.376-3.075-3.075-3.075
					C394.308,236.32,392.932,237.696,392.932,239.394z"/>
				
					<path style="fill:#FFFFFF;stroke:#263238;stroke-width:0.75;stroke-linecap:round;stroke-linejoin:round;stroke-miterlimit:10;" d="
					M387.441,243.238c0,0.788,0.639,1.428,1.428,1.428s1.428-0.639,1.428-1.428c0-0.788-0.639-1.428-1.428-1.428
					S387.441,242.449,387.441,243.238z"/>
				
					<path style="fill:#263238;stroke:#263238;stroke-width:0.75;stroke-linecap:round;stroke-linejoin:round;stroke-miterlimit:10;" d="
					M398.644,250.689c0,0-12.2,2.361-12.725,2.755c-0.525,0.394-1.574,2.624-1.574,2.624l2.492-0.656c0,0,5.772,0.262,7.74-0.656
					C396.545,253.837,398.644,250.689,398.644,250.689z"/>
				
					<path style="fill:#263238;stroke:#263238;stroke-width:0.75;stroke-linecap:round;stroke-linejoin:round;stroke-miterlimit:10;" d="
					M322.163,250.689c0,0,12.2,2.361,12.725,2.755c0.525,0.394,1.574,2.624,1.574,2.624l-2.492-0.656c0,0-5.772,0.262-7.74-0.656
					C324.262,253.837,322.163,250.689,322.163,250.689z"/>
				
					<polyline style="fill:none;stroke:#263238;stroke-width:0.75;stroke-linecap:round;stroke-linejoin:round;stroke-miterlimit:10;" points="
					383.353,241.032 380.095,239.946 377.523,239.946 				"/>
				
					<polyline style="fill:none;stroke:#263238;stroke-width:0.75;stroke-linecap:round;stroke-linejoin:round;stroke-miterlimit:10;" points="
					337.121,240.877 339.293,239.636 342.234,239.669 				"/>
				
					<path style="fill:none;stroke:#263238;stroke-width:0.75;stroke-linecap:round;stroke-linejoin:round;stroke-miterlimit:10;" d="
					M392.588,226.36c0.331-0.19,0.666-0.367,1.005-0.532"/>
				
					<path style="fill:none;stroke:#263238;stroke-width:0.75;stroke-linecap:round;stroke-linejoin:round;stroke-miterlimit:10;" d="
					M378.146,244.984c2.052-4.512,6.745-13.485,13.304-17.914"/>
				
					<path style="fill:none;stroke:#263238;stroke-width:0.75;stroke-linecap:round;stroke-linejoin:round;stroke-miterlimit:10;" d="
					M376.992,247.704c0,0,0.162-0.43,0.475-1.172"/>
				
					<path style="fill:none;stroke:#263238;stroke-width:0.75;stroke-linecap:round;stroke-linejoin:round;stroke-miterlimit:10;" d="
					M328.418,227.068c-0.544-0.33-1.108-0.641-1.692-0.929"/>
				
					<path style="fill:none;stroke:#263238;stroke-width:0.75;stroke-linecap:round;stroke-linejoin:round;stroke-miterlimit:10;" d="
					M341.558,245.083c-1.344-4.015-4.844-12.322-11.984-17.265"/>
				
					<path style="fill:none;stroke:#263238;stroke-width:0.75;stroke-linecap:round;stroke-linejoin:round;stroke-miterlimit:10;" d="
					M342.24,247.393c0,0-0.097-0.417-0.312-1.14"/>
				
					<path style="fill:#FFFFFF;stroke:#263238;stroke-width:0.75;stroke-linecap:round;stroke-linejoin:round;stroke-miterlimit:10;" d="
					M323.003,233.43c0,0-1.396-3.413-1.396-5.43"/>
				
					<path style="fill:#FFFFFF;stroke:#263238;stroke-width:0.75;stroke-linecap:round;stroke-linejoin:round;stroke-miterlimit:10;" d="
					M397.626,233.275c0,0,0.465-1.551,0.776-4.344"/>
				
					<path style="fill:none;stroke:#263238;stroke-width:0.75;stroke-linecap:round;stroke-linejoin:round;stroke-miterlimit:10;" d="
					M402.436,247.859l-0.931,12.101l-17.221,0.776c0,0-2.948-3.568-3.103-5.12c-0.155-1.551,2.017-3.879,2.637-4.034
					c0.621-0.155,11.481-2.327,11.481-2.327"/>
				
					<path style="fill:none;stroke:#263238;stroke-width:0.75;stroke-linecap:round;stroke-linejoin:round;stroke-miterlimit:10;" d="
					M318.185,247.859l0.931,12.101l17.221,0.776c0,0,2.948-3.568,3.103-5.12c0.155-1.551-2.017-3.879-2.637-4.034
					c-0.621-0.155-11.481-2.327-11.481-2.327"/>
				
					<path style="fill:none;stroke:#263238;stroke-width:0.75;stroke-linecap:round;stroke-linejoin:round;stroke-miterlimit:10;" d="
					M346.975,242.593l12.659,1.013c0.538,0.043,1.078,0.044,1.616,0.002l11.668-0.906"/>
				
					<path style="fill:none;stroke:#263238;stroke-width:0.75;stroke-linecap:round;stroke-linejoin:round;stroke-miterlimit:10;" d="
					M347.81,243.918l11.825,0.946c0.538,0.043,1.078,0.044,1.616,0.002l11.259-0.874"/>
				
					<path style="fill:none;stroke:#263238;stroke-width:0.75;stroke-linecap:round;stroke-linejoin:round;stroke-miterlimit:10;" d="
					M348.656,245.244l10.979,0.878c0.538,0.043,1.078,0.044,1.616,0.002l10.69-0.83"/>
			</g>
			<path style="fill:none;stroke:#263238;stroke-width:0.75;stroke-linecap:round;stroke-linejoin:round;stroke-miterlimit:10;" d="
				M323.999,224.189c0,0,51.163-1.968,71.497,0l-8.921-14.408c0,0-23.089-2.886-53.13,0.131
				C333.444,209.912,327.279,217.761,323.999,224.189z"/>
		</g>
	</g>
</g>
<g id="House">
	<g>
		<g>
			
				<rect x="309.041" y="69.97" style="fill:#FFFFFF;stroke:#263238;stroke-width:0.75;stroke-linecap:round;stroke-linejoin:round;stroke-miterlimit:10;" width="104.581" height="33.002"/>
			
				<polygon style="fill:#92E3A9;stroke:#263238;stroke-width:0.75;stroke-linecap:round;stroke-linejoin:round;stroke-miterlimit:10;" points="
				361.469,39.86 309.317,69.97 413.622,69.97 			"/>
		</g>
		
			<rect x="356.641" y="67.288" style="fill:#FFFFFF;stroke:#263238;stroke-width:0.75;stroke-linecap:round;stroke-linejoin:round;stroke-miterlimit:10;" width="25.88" height="35.683"/>
		
			<rect x="356.641" y="67.288" style="fill:#263238;stroke:#263238;stroke-width:0.75;stroke-linecap:round;stroke-linejoin:round;stroke-miterlimit:10;" width="25.88" height="1.518"/>
		
			<path style="fill:#263238;stroke:#263238;stroke-width:0.75;stroke-linecap:round;stroke-linejoin:round;stroke-miterlimit:10;" d="
			M376.044,102.972h-12.925V80.667c0-3.569,2.893-6.463,6.463-6.463l0,0c3.569,0,6.462,2.893,6.462,6.463V102.972z"/>
		
			<rect x="301.532" y="75.751" style="fill:#FFFFFF;stroke:#263238;stroke-width:0.75;stroke-linecap:round;stroke-linejoin:round;stroke-miterlimit:10;" width="59.946" height="27.221"/>
		
			<rect x="301.532" y="75.751" style="fill:#263238;stroke:#263238;stroke-width:0.75;stroke-linecap:round;stroke-linejoin:round;stroke-miterlimit:10;" width="59.946" height="1.214"/>
		
			<rect x="308.128" y="77.996" style="fill:#92E3A9;stroke:#263238;stroke-width:0.75;stroke-linecap:round;stroke-linejoin:round;stroke-miterlimit:10;" width="46.754" height="24.976"/>
		
			<polygon style="fill:#92E3A9;stroke:#263238;stroke-width:0.75;stroke-linecap:round;stroke-linejoin:round;stroke-miterlimit:10;" points="
			331.505,55.836 299.69,74.204 363.319,74.204 		"/>
		
			<rect x="299.69" y="74.204" style="fill:#FFFFFF;stroke:#263238;stroke-width:0.75;stroke-linecap:round;stroke-linejoin:round;stroke-miterlimit:10;" width="63.628" height="1.546"/>
		
			<polygon style="fill:#92E3A9;stroke:#263238;stroke-width:0.75;stroke-linecap:round;stroke-linejoin:round;stroke-miterlimit:10;" points="
			369.581,56.931 353.105,66.443 386.057,66.443 		"/>
		
			<rect x="353.105" y="66.443" style="fill:#FFFFFF;stroke:#263238;stroke-width:0.75;stroke-linecap:round;stroke-linejoin:round;stroke-miterlimit:10;" width="32.952" height="1.527"/>
		<g>
			<g>
				
					<rect x="309.831" y="80.003" style="fill:#FFFFFF;stroke:#263238;stroke-width:0.75;stroke-linecap:round;stroke-linejoin:round;stroke-miterlimit:10;" width="3.786" height="3.786"/>
				
					<rect x="315.51" y="80.003" style="fill:#FFFFFF;stroke:#263238;stroke-width:0.75;stroke-linecap:round;stroke-linejoin:round;stroke-miterlimit:10;" width="3.786" height="3.786"/>
				
					<rect x="321.189" y="80.003" style="fill:#FFFFFF;stroke:#263238;stroke-width:0.75;stroke-linecap:round;stroke-linejoin:round;stroke-miterlimit:10;" width="3.786" height="3.786"/>
				
					<rect x="326.869" y="80.003" style="fill:#FFFFFF;stroke:#263238;stroke-width:0.75;stroke-linecap:round;stroke-linejoin:round;stroke-miterlimit:10;" width="3.786" height="3.786"/>
				
					<rect x="332.548" y="80.003" style="fill:#FFFFFF;stroke:#263238;stroke-width:0.75;stroke-linecap:round;stroke-linejoin:round;stroke-miterlimit:10;" width="3.786" height="3.786"/>
				
					<rect x="338.228" y="80.003" style="fill:#FFFFFF;stroke:#263238;stroke-width:0.75;stroke-linecap:round;stroke-linejoin:round;stroke-miterlimit:10;" width="3.786" height="3.786"/>
				
					<rect x="343.907" y="80.003" style="fill:#FFFFFF;stroke:#263238;stroke-width:0.75;stroke-linecap:round;stroke-linejoin:round;stroke-miterlimit:10;" width="3.786" height="3.786"/>
				
					<rect x="349.587" y="80.003" style="fill:#FFFFFF;stroke:#263238;stroke-width:0.75;stroke-linecap:round;stroke-linejoin:round;stroke-miterlimit:10;" width="3.786" height="3.786"/>
			</g>
			<g>
				
					<rect x="309.831" y="85.575" style="fill:#FFFFFF;stroke:#263238;stroke-width:0.75;stroke-linecap:round;stroke-linejoin:round;stroke-miterlimit:10;" width="3.786" height="3.786"/>
				
					<rect x="315.51" y="85.575" style="fill:#FFFFFF;stroke:#263238;stroke-width:0.75;stroke-linecap:round;stroke-linejoin:round;stroke-miterlimit:10;" width="3.786" height="3.786"/>
				
					<rect x="321.189" y="85.575" style="fill:#FFFFFF;stroke:#263238;stroke-width:0.75;stroke-linecap:round;stroke-linejoin:round;stroke-miterlimit:10;" width="3.786" height="3.786"/>
				
					<rect x="326.869" y="85.575" style="fill:#FFFFFF;stroke:#263238;stroke-width:0.75;stroke-linecap:round;stroke-linejoin:round;stroke-miterlimit:10;" width="3.786" height="3.786"/>
				
					<rect x="332.548" y="85.575" style="fill:#FFFFFF;stroke:#263238;stroke-width:0.75;stroke-linecap:round;stroke-linejoin:round;stroke-miterlimit:10;" width="3.786" height="3.786"/>
				
					<rect x="338.228" y="85.575" style="fill:#FFFFFF;stroke:#263238;stroke-width:0.75;stroke-linecap:round;stroke-linejoin:round;stroke-miterlimit:10;" width="3.786" height="3.786"/>
				
					<rect x="343.907" y="85.575" style="fill:#FFFFFF;stroke:#263238;stroke-width:0.75;stroke-linecap:round;stroke-linejoin:round;stroke-miterlimit:10;" width="3.786" height="3.786"/>
				
					<rect x="349.587" y="85.575" style="fill:#FFFFFF;stroke:#263238;stroke-width:0.75;stroke-linecap:round;stroke-linejoin:round;stroke-miterlimit:10;" width="3.786" height="3.786"/>
			</g>
			<g>
				
					<rect x="309.831" y="91.146" style="fill:#FFFFFF;stroke:#263238;stroke-width:0.75;stroke-linecap:round;stroke-linejoin:round;stroke-miterlimit:10;" width="3.786" height="3.786"/>
				
					<rect x="315.51" y="91.146" style="fill:#FFFFFF;stroke:#263238;stroke-width:0.75;stroke-linecap:round;stroke-linejoin:round;stroke-miterlimit:10;" width="3.786" height="3.786"/>
				
					<rect x="321.189" y="91.146" style="fill:#FFFFFF;stroke:#263238;stroke-width:0.75;stroke-linecap:round;stroke-linejoin:round;stroke-miterlimit:10;" width="3.786" height="3.786"/>
				
					<rect x="326.869" y="91.146" style="fill:#FFFFFF;stroke:#263238;stroke-width:0.75;stroke-linecap:round;stroke-linejoin:round;stroke-miterlimit:10;" width="3.786" height="3.786"/>
				
					<rect x="332.548" y="91.146" style="fill:#FFFFFF;stroke:#263238;stroke-width:0.75;stroke-linecap:round;stroke-linejoin:round;stroke-miterlimit:10;" width="3.786" height="3.786"/>
				
					<rect x="338.228" y="91.146" style="fill:#FFFFFF;stroke:#263238;stroke-width:0.75;stroke-linecap:round;stroke-linejoin:round;stroke-miterlimit:10;" width="3.786" height="3.786"/>
				
					<rect x="343.907" y="91.146" style="fill:#FFFFFF;stroke:#263238;stroke-width:0.75;stroke-linecap:round;stroke-linejoin:round;stroke-miterlimit:10;" width="3.786" height="3.786"/>
				
					<rect x="349.587" y="91.146" style="fill:#FFFFFF;stroke:#263238;stroke-width:0.75;stroke-linecap:round;stroke-linejoin:round;stroke-miterlimit:10;" width="3.786" height="3.786"/>
			</g>
			<g>
				
					<rect x="309.831" y="96.718" style="fill:#FFFFFF;stroke:#263238;stroke-width:0.75;stroke-linecap:round;stroke-linejoin:round;stroke-miterlimit:10;" width="3.786" height="3.786"/>
				
					<rect x="315.51" y="96.718" style="fill:#FFFFFF;stroke:#263238;stroke-width:0.75;stroke-linecap:round;stroke-linejoin:round;stroke-miterlimit:10;" width="3.786" height="3.786"/>
				
					<rect x="321.189" y="96.718" style="fill:#FFFFFF;stroke:#263238;stroke-width:0.75;stroke-linecap:round;stroke-linejoin:round;stroke-miterlimit:10;" width="3.786" height="3.786"/>
				
					<rect x="326.869" y="96.718" style="fill:#FFFFFF;stroke:#263238;stroke-width:0.75;stroke-linecap:round;stroke-linejoin:round;stroke-miterlimit:10;" width="3.786" height="3.786"/>
				
					<rect x="332.548" y="96.718" style="fill:#FFFFFF;stroke:#263238;stroke-width:0.75;stroke-linecap:round;stroke-linejoin:round;stroke-miterlimit:10;" width="3.786" height="3.786"/>
				
					<rect x="338.228" y="96.718" style="fill:#FFFFFF;stroke:#263238;stroke-width:0.75;stroke-linecap:round;stroke-linejoin:round;stroke-miterlimit:10;" width="3.786" height="3.786"/>
				
					<rect x="343.907" y="96.718" style="fill:#FFFFFF;stroke:#263238;stroke-width:0.75;stroke-linecap:round;stroke-linejoin:round;stroke-miterlimit:10;" width="3.786" height="3.786"/>
				
					<rect x="349.587" y="96.718" style="fill:#FFFFFF;stroke:#263238;stroke-width:0.75;stroke-linecap:round;stroke-linejoin:round;stroke-miterlimit:10;" width="3.786" height="3.786"/>
			</g>
		</g>
		
			<polygon style="fill:#FFFFFF;stroke:#263238;stroke-width:0.75;stroke-linecap:round;stroke-linejoin:round;stroke-miterlimit:10;" points="
			416.587,102.972 378.351,102.972 378.351,67.288 397.469,56.931 416.587,67.288 		"/>
		<g>
			
				<polygon style="fill:#FFFFFF;stroke:#263238;stroke-width:0.75;stroke-linecap:round;stroke-linejoin:round;stroke-miterlimit:10;" points="
				419.509,68.806 397.469,56.865 375.428,68.806 374.743,67.54 397.469,55.228 420.195,67.54 			"/>
		</g>
		
			<polygon style="fill:#263238;stroke:#263238;stroke-width:0.75;stroke-linecap:round;stroke-linejoin:round;stroke-miterlimit:10;" points="
			378.351,67.288 378.351,68.156 397.469,57.798 416.587,68.156 416.587,67.288 397.469,56.931 		"/>
		<g>
			
				<rect x="398.086" y="79.519" style="fill:#263238;stroke:#263238;stroke-width:0.75;stroke-linecap:round;stroke-linejoin:round;stroke-miterlimit:10;" width="6.416" height="4.459"/>
			
				<rect x="398.086" y="85.445" style="fill:#263238;stroke:#263238;stroke-width:0.75;stroke-linecap:round;stroke-linejoin:round;stroke-miterlimit:10;" width="6.416" height="4.459"/>
			
				<rect x="398.086" y="73.292" style="fill:#263238;stroke:#263238;stroke-width:0.75;stroke-linecap:round;stroke-linejoin:round;stroke-miterlimit:10;" width="6.416" height="4.761"/>
			
				<rect x="390.203" y="73.292" style="fill:#263238;stroke:#263238;stroke-width:0.75;stroke-linecap:round;stroke-linejoin:round;stroke-miterlimit:10;" width="6.416" height="4.761"/>
			
				<rect x="390.203" y="85.445" style="fill:#263238;stroke:#263238;stroke-width:0.75;stroke-linecap:round;stroke-linejoin:round;stroke-miterlimit:10;" width="6.416" height="4.459"/>
			
				<rect x="390.203" y="79.519" style="fill:#263238;stroke:#263238;stroke-width:0.75;stroke-linecap:round;stroke-linejoin:round;stroke-miterlimit:10;" width="6.416" height="4.459"/>
			
				<rect x="398.086" y="91.37" style="fill:#263238;stroke:#263238;stroke-width:0.75;stroke-linecap:round;stroke-linejoin:round;stroke-miterlimit:10;" width="6.416" height="4.102"/>
			
				<rect x="390.203" y="91.37" style="fill:#263238;stroke:#263238;stroke-width:0.75;stroke-linecap:round;stroke-linejoin:round;stroke-miterlimit:10;" width="6.416" height="4.102"/>
		</g>
	</g>
</g>
<g id="Piggy_Bank">
	<g>
		<g>
			
				<path style="fill:#92E3A9;stroke:#263238;stroke-width:0.75;stroke-linecap:round;stroke-linejoin:round;stroke-miterlimit:10;" d="
				M148.187,60.919c0,0,9.482-5.344,10.861-4.827c1.379,0.517-1.207,11.033-1.551,11.723
				C157.152,68.504,148.187,60.919,148.187,60.919z"/>
			<path style="fill:none;stroke:#263238;stroke-width:0.75;stroke-linecap:round;stroke-linejoin:round;stroke-miterlimit:10;" d="
				M158.531,57.471c0,0-0.411,0.64-0.934,1.562c-0.914,1.61-2.169,4.081-2.169,5.506c0,2.241,1.379,2.069,1.724,0.345l1.207-4.999"
				/>
		</g>
		
			<path style="fill:#92E3A9;stroke:#263238;stroke-width:0.75;stroke-linecap:round;stroke-linejoin:round;stroke-miterlimit:10;" d="
			M83.557,82.842c0,3.384-2.107,6.127-4.706,6.127c-2.599,0-4.706-2.743-4.706-6.127s2.107-6.127,4.706-6.127
			C81.45,76.716,83.557,79.459,83.557,82.842z"/>
		
			<ellipse style="fill:#92E3A9;stroke:#263238;stroke-width:0.75;stroke-linecap:round;stroke-linejoin:round;stroke-miterlimit:10;" cx="121.512" cy="88.844" rx="44.848" ry="37.969"/>
		
			<path style="fill:#92E3A9;stroke:#263238;stroke-width:0.75;stroke-linecap:round;stroke-linejoin:round;stroke-miterlimit:10;" d="
			M150.639,115.017c-7.604,6.068-17.852,9.786-29.126,9.786c-20.124,0-36.979-11.848-41.364-27.754"/>
		
			<path style="fill:#92E3A9;stroke:#263238;stroke-width:0.75;stroke-linecap:round;stroke-linejoin:round;stroke-miterlimit:10;" d="
			M79.061,90.037c-0.015-0.396-0.023-0.794-0.023-1.193c0-4.423,0.943-8.66,2.669-12.574"/>
		<path style="fill:none;stroke:#263238;stroke-width:0.75;stroke-linecap:round;stroke-linejoin:round;stroke-miterlimit:10;" d="
			M108.04,55.054c4.23-1.208,8.761-1.863,13.472-1.863c4.731,0,9.28,0.661,13.525,1.878"/>
		
			<path style="fill:#92E3A9;stroke:#263238;stroke-width:0.75;stroke-linecap:round;stroke-linejoin:round;stroke-miterlimit:10;" d="
			M163.875,77.124c0,0,5.689-1.896,6.551-0.862c0.862,1.034,0.862,13.102,0.172,15.343c-0.69,2.241-5.344,1.724-8.62-0.69
			c-3.275-2.414-2.931-5.861-2.931-5.861"/>
		
			<line style="fill:none;stroke:#263238;stroke-width:0.75;stroke-linecap:round;stroke-linejoin:round;stroke-miterlimit:10;" x1="160.427" y1="84.537" x2="156.979" y2="85.054"/>
		
			<path style="fill:#263238;stroke:#263238;stroke-width:0.75;stroke-linecap:round;stroke-linejoin:round;stroke-miterlimit:10;" d="
			M159.565,88.33c0,0-0.862,6.034,0.172,6.206c1.034,0.172,2.758-2.931,2.758-2.931S160.083,88.847,159.565,88.33z"/>
		<path style="fill:#263238;" d="M156.43,74.195c0.32,1.245,0.13,2.369-0.423,2.511c-0.553,0.142-1.261-0.752-1.581-1.997
			c-0.32-1.245-0.13-2.369,0.423-2.511C155.402,72.056,156.11,72.95,156.43,74.195z"/>
		<g>
			
				<path style="fill:#92E3A9;stroke:#263238;stroke-width:0.75;stroke-linecap:round;stroke-linejoin:round;stroke-miterlimit:10;" d="
				M138.314,57.49c0,0,10.848-10.848,12.965-8.732c2.117,2.117,1.323,11.377,1.323,12.7c0,1.323,0,3.704,0,3.704"/>
			<path style="fill:none;stroke:#263238;stroke-width:0.75;stroke-linecap:round;stroke-linejoin:round;stroke-miterlimit:10;" d="
				M151.635,51.093c0,0,0.172-2.758-1.034-1.034c-1.207,1.724-4.655,13.619-3.62,14.998c1.034,1.379,3.965,0.69,4.655-1.896
				c0.69-2.586,0.172-9.999,0.172-9.999"/>
		</g>
		
			<polyline style="fill:#92E3A9;stroke:#263238;stroke-width:0.75;stroke-linecap:round;stroke-linejoin:round;stroke-miterlimit:10;" points="
			92.259,114.009 98.193,130.049 104.744,130.049 107.675,121.774 		"/>
		
			<polyline style="fill:#92E3A9;stroke:#263238;stroke-width:0.75;stroke-linecap:round;stroke-linejoin:round;stroke-miterlimit:10;" points="
			146.98,116.085 141.292,130.049 134.741,130.049 131.81,121.774 		"/>
	</g>
</g>
</svg>
